<svg width="633" height="346" viewBox="0 0 633 346" fill="none" xmlns="http://www.w3.org/2000/svg">
<path d="M2 342L20.4611 336.684L37.6343 333.494L39.3516 327.114L50.0849 323.924L59.9594 315.418L88.8918 251.62L92.7558 240.987L102.63 232.48L114.652 221.847L118.516 225.037L121.091 232.48H127.102L139.553 202.708L143.846 182.505L159.731 177.189L178.622 145.29L189.355 108.074L194.507 114.454L203.952 92.1248H208.675L225.418 120.834L237.869 151.669L247.744 188.885L255.471 180.379L265.346 184.632L281.231 163.366L288.959 169.745L297.546 163.366L300.551 137.847L310.426 114.454L316.007 82.5552L328.887 52.7829L339.62 21.9473L343.913 26.2005L349.924 45.3398L357.652 78.302L367.097 102.758L377.83 109.138L391.998 142.1L401.014 180.379H418.381L432.389 187.822L445.897 165.493L463.055 187.822L470.771 187.824L486.656 158.051L491.379 132.532L508.982 95.3169L518.031 107.013H528.966L532.83 87.8738L544.851 58.1015L550.433 34.709L561.166 24.076L568.894 6L579.198 10.2532L584.35 24.076L591.219 45.342L605.387 67.6712L617.408 54.9116L629 24.076" stroke="#3BC6F3" stroke-width="8"/>
</svg>
