<svg width="96" height="42" viewBox="0 0 96 42" fill="none" xmlns="http://www.w3.org/2000/svg">
<path d="M14.6201 34.12C13.159 34.1305 11.7051 33.9146 10.3101 33.48C9.04319 33.0893 7.87161 32.4388 6.87012 31.57L9.57012 28.36C10.3425 28.9687 11.2205 29.4297 12.1601 29.72C13.0351 29.9886 13.9449 30.1268 14.8601 30.13C15.2023 30.1547 15.5453 30.0964 15.8601 29.96C15.9489 29.9173 16.0239 29.8507 16.0769 29.7676C16.1299 29.6846 16.1587 29.5885 16.1601 29.49C16.148 29.3667 16.0998 29.2497 16.0215 29.1537C15.9433 29.0576 15.8384 28.9868 15.7201 28.95C15.1886 28.7391 14.6351 28.5882 14.0701 28.5C13.2235 28.3267 12.4135 28.1233 11.6401 27.89C10.9378 27.6855 10.2654 27.3897 9.64012 27.01C9.05813 26.6604 8.56791 26.177 8.21012 25.6C7.84984 24.9965 7.66943 24.3026 7.69012 23.6C7.6843 22.9109 7.82758 22.2286 8.11012 21.6C8.39321 20.9745 8.81362 20.4207 9.34012 19.98C9.92976 19.4927 10.6093 19.1258 11.3401 18.9C12.2307 18.6269 13.1587 18.4953 14.0901 18.51C15.4109 18.4717 16.7297 18.6369 18.0001 19C19.0874 19.3267 20.1046 19.8523 21.0001 20.55L18.5401 23.96C17.8493 23.4574 17.0784 23.0753 16.2601 22.83C15.5282 22.6014 14.7669 22.4801 14.0001 22.47C13.7131 22.449 13.4258 22.5078 13.1701 22.64C13.0886 22.6835 13.0204 22.7483 12.9728 22.8276C12.9252 22.9069 12.9001 22.9976 12.9001 23.09C12.9123 23.2066 12.9573 23.3173 13.0299 23.4093C13.1024 23.5014 13.1996 23.5709 13.3101 23.61C13.8237 23.823 14.3608 23.9741 14.9101 24.06C15.8018 24.2131 16.6835 24.4201 17.5501 24.68C18.258 24.8968 18.9314 25.2133 19.5501 25.62C20.0766 25.9762 20.5145 26.4482 20.8301 27C21.1635 27.612 21.3226 28.3038 21.2901 29C21.3015 29.7412 21.137 30.4746 20.8101 31.14C20.4941 31.7732 20.0354 32.3243 19.4701 32.75C18.8407 33.2087 18.1322 33.5477 17.3801 33.75C16.4822 34.0031 15.553 34.1277 14.6201 34.12Z" fill="white"/>
<path d="M25.46 23H21V18.74H35V23H30.51V33.84H25.46V23Z" fill="white"/>
<path d="M35.6699 18.74H42.9999C44.1278 18.7062 45.2534 18.8617 46.3299 19.2C47.1152 19.4581 47.8327 19.8886 48.4299 20.46C48.8643 20.904 49.2044 21.4312 49.4299 22.01C49.6702 22.649 49.7889 23.3273 49.7799 24.01C49.8116 25.0039 49.5319 25.9829 48.9799 26.81C48.4238 27.5934 47.6722 28.2174 46.7999 28.62L50.3199 33.76H44.6399L41.7899 29.44H40.7199V33.76H35.6699V18.74ZM42.8999 25.93C43.4031 25.9577 43.9015 25.8208 44.3199 25.54C44.4882 25.4161 44.6235 25.2529 44.7142 25.0646C44.8048 24.8764 44.848 24.6688 44.8399 24.46C44.8543 24.2489 44.814 24.0377 44.7229 23.8468C44.6318 23.6558 44.493 23.4916 44.3199 23.37C43.9003 23.1113 43.4122 22.9858 42.9199 23.01H40.7199V26.01H42.8999V25.93Z" fill="white"/>
<path d="M79.61 27.34L82.91 33.84H87.75L79.61 17.79L71.48 33.84H76.32L79.61 27.34Z" fill="white"/>
<path d="M56.9801 27.34L60.2701 33.84H65.1101L56.9801 17.79L48.8501 33.84H53.6901L56.9801 27.34Z" fill="white"/>
<path d="M68.2999 25.23L65.0099 18.74H60.1699L68.2999 34.79L76.4299 18.74H71.5899L68.2999 25.23Z" fill="white"/>
<path d="M7.55005 13.15V7.55003H9.79005C10.2902 7.52192 10.7826 7.68251 11.17 8.00003C11.3485 8.16441 11.4886 8.36614 11.5802 8.59085C11.6718 8.81555 11.7127 9.0577 11.7 9.30003C11.7123 9.53753 11.6731 9.77488 11.5851 9.99581C11.497 10.2167 11.3623 10.416 11.19 10.58C10.803 10.9071 10.3062 11.0751 9.80005 11.05H8.50005V13.13H7.55005V13.15ZM8.49005 10.15H9.77005C10.0106 10.1856 10.2559 10.1323 10.46 10C10.5497 9.92005 10.6204 9.82113 10.6671 9.71044C10.7138 9.59975 10.7353 9.48005 10.73 9.36003C10.7403 9.23263 10.7203 9.10461 10.6717 8.98642C10.623 8.86824 10.5471 8.76324 10.45 8.68003C10.2515 8.53091 10.0083 8.45337 9.76005 8.46003H8.50005V10.2L8.49005 10.15Z" fill="white"/>
<path d="M16 13.11C15.4206 13.3326 14.7793 13.3326 14.2 13.11C13.8851 12.9859 13.6026 12.7917 13.3739 12.5422C13.1452 12.2928 12.9763 11.9945 12.88 11.67C12.7399 11.2305 12.6724 10.7712 12.68 10.31C12.6346 9.53827 12.889 8.7788 13.39 8.19002C13.604 7.95166 13.8662 7.76153 14.1593 7.63223C14.4524 7.50292 14.7696 7.43741 15.09 7.44002C15.4096 7.4388 15.7257 7.50598 16.0172 7.63707C16.3087 7.76816 16.5688 7.9601 16.78 8.20002C17.281 8.78881 17.5353 9.54826 17.49 10.32C17.4981 10.7812 17.4305 11.2407 17.29 11.68C17.185 12.0279 17 12.3464 16.75 12.61C16.5363 12.8256 16.2811 12.9956 16 13.11ZM14.07 11.89C14.1902 12.0495 14.3458 12.1788 14.5246 12.2679C14.7033 12.357 14.9003 12.4034 15.1 12.4034C15.2997 12.4034 15.4967 12.357 15.6754 12.2679C15.8541 12.1788 16.0097 12.0495 16.13 11.89C16.4319 11.421 16.5723 10.8662 16.53 10.31C16.566 9.78125 16.4214 9.25592 16.12 8.82002C16.0001 8.66994 15.8479 8.54878 15.6748 8.46552C15.5017 8.38225 15.3121 8.33902 15.12 8.33902C14.9279 8.33902 14.7382 8.38225 14.5651 8.46552C14.392 8.54878 14.2399 8.66994 14.12 8.82002C13.82 9.25284 13.6755 9.77453 13.71 10.3C13.6683 10.8607 13.8124 11.4194 14.12 11.89H14.07Z" fill="white"/>
<path d="M19.6999 13.15L18.6299 7.54999H19.6299L20.3899 11.49L21.6999 7.54999H22.2399L23.5599 11.49L24.3199 7.54999H25.2599L24.1899 13.15H23.1899L21.9999 9.30999L20.6999 13.15H19.6999Z" fill="white"/>
<path d="M26.8301 13.15V7.54999H30.3201V8.41999H27.7801V9.85999H30.1001V10.7H27.7801V12.28H30.3201V13.15H26.8301Z" fill="white"/>
<path d="M32.0801 13.15V7.55003H34.3101C34.8136 7.51937 35.3101 7.6801 35.7001 8.00003C35.8758 8.16185 36.0135 8.36052 36.1034 8.58181C36.1933 8.8031 36.2331 9.04153 36.2201 9.28003C36.2346 9.66231 36.1143 10.0375 35.8801 10.34C35.6468 10.6239 35.3273 10.824 34.9701 10.91L36.1801 13.14H35.1801L34.0001 11H33.0001V13.15H32.0801ZM33.0201 10.15H34.2401C34.367 10.173 34.4975 10.1669 34.6217 10.132C34.7459 10.0971 34.8605 10.0344 34.9569 9.94862C35.0532 9.86286 35.1288 9.75628 35.1779 9.63698C35.227 9.51768 35.2482 9.38877 35.2401 9.26003C35.2482 9.13128 35.227 9.00237 35.1779 8.88307C35.1288 8.76377 35.0532 8.6572 34.9569 8.57143C34.8605 8.48567 34.7459 8.42297 34.6217 8.38807C34.4975 8.35317 34.367 8.347 34.2401 8.37003H33.0001V10.15H33.0201Z" fill="white"/>
<path d="M37.78 13.15V7.54999H41.27V8.41999H38.73V9.85999H41V10.7H38.73V12.28H41.27V13.15H37.78Z" fill="white"/>
<path d="M43 13.15V7.54999H44.83C45.138 7.54934 45.4434 7.60702 45.73 7.71999C46.0168 7.83488 46.2784 8.00473 46.5 8.21999C46.748 8.4676 46.9361 8.76859 47.05 9.09999C47.1904 9.50147 47.2581 9.92475 47.25 10.35C47.2592 10.8055 47.1881 11.2591 47.04 11.69C46.9316 12.0288 46.7349 12.3326 46.47 12.57C46.241 12.7683 45.9763 12.921 45.69 13.02C45.3933 13.1177 45.0823 13.165 44.77 13.16H43V13.15ZM44 12.28H44.8C45.0011 12.2919 45.2025 12.2606 45.3905 12.1882C45.5786 12.1157 45.7489 12.0038 45.89 11.86C46.195 11.4189 46.3333 10.8837 46.28 10.35C46.3199 9.83626 46.1822 9.32441 45.89 8.89999C45.769 8.75193 45.6164 8.63287 45.4433 8.55153C45.2703 8.4702 45.0812 8.42867 44.89 8.42999H44V12.29V12.28Z" fill="white"/>
<path d="M51.49 13.15V7.55002H53.79C54.0115 7.53984 54.2329 7.57445 54.4408 7.65177C54.6487 7.72908 54.8389 7.84753 55 8.00002C55.1343 8.12989 55.2415 8.28517 55.3154 8.45685C55.3892 8.62852 55.4281 8.81315 55.43 9.00002C55.436 9.2233 55.378 9.44365 55.2628 9.63503C55.1477 9.82641 54.9801 9.98082 54.78 10.08C55.016 10.1889 55.2219 10.3537 55.38 10.56C55.5536 10.7972 55.6417 11.0863 55.63 11.38C55.63 12.52 54.9433 13.09 53.57 13.09H51.47L51.49 13.15ZM52.43 9.85002H53.66C53.8815 9.86598 54.1014 9.80213 54.28 9.67002C54.354 9.60594 54.4123 9.52574 54.4504 9.43559C54.4886 9.34544 54.5055 9.24774 54.5 9.15002C54.5071 9.04917 54.491 8.94803 54.4528 8.8544C54.4147 8.76078 54.3555 8.67716 54.28 8.61002C54.101 8.4787 53.8814 8.41494 53.66 8.43002H52.43V9.85002ZM52.43 12.28H53.83C53.945 12.2716 54.059 12.2515 54.17 12.22C54.2727 12.1951 54.3684 12.1472 54.45 12.08C54.5237 12.0097 54.5816 11.9244 54.62 11.83C54.6691 11.706 54.6929 11.5734 54.69 11.44C54.7068 11.3133 54.6865 11.1844 54.6314 11.069C54.5764 10.9536 54.489 10.8567 54.38 10.79C54.064 10.6582 53.7213 10.6033 53.38 10.63H52.38V12.28H52.43Z" fill="white"/>
<path d="M58.2299 13.15V10.79L56.3999 7.54999H57.3999L58.6799 9.92999L59.9999 7.54999H60.9999L59.1699 10.79V13.15H58.2299Z" fill="white"/>
</svg>
